# xmcd CD database file
# Copyright (C) 1997 Ti Kan
# 
# Track frame offsets:
#     182
#     10672
#     23322
#     35320
#     53665
#     66972
#     89747
#     97642
#     108545
#     123385
#     147950
#     164797
#     186250
#     210285
# 
# Disc length: 3078 seconds
# 
# Revision: 1
# Processed by: cddbd v1.4b41PL1 Copyright (c) Steve Scherf et al.
# Submitted via: DiscPlay 4.0.3
# 
DISCID=b20c040e
DTITLE=Paul K - Blues for Charlie Lucky
DYEAR=1900
DGENRE=
TTITLE0=Black and blues
TTITLE1=Stop the film
TTITLE2=John Riley
TTITLE3=God's own singer
TTITLE4=The central states pension fund
TTITLE5=Telephones and mirrors
TTITLE6=The big nowhere
TTITLE7=Jerusalem
TTITLE8=Nicotine psychos blues
TTITLE9=Radiant and white
TTITLE10=Autumn leaves
TTITLE11=The rotten tooth
TTITLE12=Foglight
TTITLE13=Charlie Lucky says
EXTD=
EXTT0=
EXTT1=
EXTT2=
EXTT3=
EXTT4=
EXTT5=
EXTT6=
EXTT7=
EXTT8=
EXTT9=
EXTT10=
EXTT11=
EXTT12=
EXTT13=
PLAYORDER=
